<?xml version="1.0" standalone="no"?>
<!DOCTYPE svg PUBLIC "-//W3C//DTD SVG 20010904//EN"
 "http://www.w3.org/TR/2001/REC-SVG-20010904/DTD/svg10.dtd">
<svg version="1.0" xmlns="http://www.w3.org/2000/svg"
 width="1280.000000pt" height="1280.000000pt" viewBox="0 0 1280.000000 1280.000000"
 preserveAspectRatio="xMidYMid meet">
<metadata>
Created by potrace 1.15, written by Peter Selinger 2001-2017
</metadata>
<g transform="translate(0.000000,1280.000000) scale(0.100000,-0.100000)"
fill="#000000" stroke="none">
<path d="M2995 11774 c-489 -90 -959 -331 -1222 -626 -143 -159 -191 -257
-252 -508 -22 -91 -63 -232 -90 -315 -54 -161 -59 -191 -36 -234 16 -32 33
-41 77 -41 35 0 49 10 233 161 142 116 300 233 357 263 l37 20 20 -26 c55 -70
181 -23 181 68 0 18 -5 34 -12 36 -8 3 4 43 36 119 53 125 125 273 131 267 2
-2 -3 -41 -11 -88 -33 -191 -148 -459 -288 -670 -45 -69 -76 -126 -76 -141 0
-30 34 -79 55 -79 17 0 59 -126 80 -239 9 -52 15 -141 15 -241 0 -156 0 -159
26 -189 34 -41 70 -40 162 4 151 72 251 89 388 63 55 -10 66 -9 89 6 48 31 51
54 22 168 -15 57 -44 209 -66 338 -22 129 -46 253 -54 275 l-14 40 79 95 c256
304 453 663 540 980 33 120 33 316 1 375 -25 47 -65 86 -113 111 -47 24 -190
28 -295 8z"/>
<path d="M6900 11005 c-166 -17 -251 -30 -458 -71 -205 -41 -342 -81 -573
-169 -94 -36 -215 -76 -269 -90 -286 -72 -610 -227 -1050 -501 -666 -414 -958
-737 -1157 -1283 -39 -109 -95 -317 -118 -441 -13 -66 -25 -99 -57 -147 -53
-83 -166 -179 -233 -198 -90 -26 -218 -53 -287 -60 -63 -6 -67 -8 -57 -26 18
-35 86 -68 251 -123 195 -66 257 -78 409 -80 l116 -1 -29 -80 c-40 -109 -85
-298 -103 -430 -8 -60 -23 -177 -35 -260 -45 -334 -15 -583 97 -810 90 -182
259 -351 451 -453 74 -38 218 -92 249 -92 12 0 12 -3 -1 -22 -27 -38 -18 -85
40 -222 77 -180 148 -399 176 -536 17 -88 22 -149 23 -260 0 -175 -11 -227
-99 -465 -35 -93 -69 -188 -76 -209 -7 -22 -22 -55 -34 -75 -20 -34 -21 -48
-20 -281 2 -271 18 -521 40 -619 8 -35 13 -65 12 -67 -2 -1 -60 -29 -129 -62
-314 -148 -322 -227 -73 -809 143 -336 164 -398 164 -487 0 -63 -18 -137 -144
-579 -80 -279 -180 -611 -223 -739 -43 -128 -79 -239 -81 -245 -3 -10 617 -13
3072 -13 1692 0 3076 3 3076 6 0 3 11 87 24 187 34 253 54 472 66 747 14 314
31 2124 21 2178 -5 23 -17 52 -27 63 -21 23 -15 23 -239 0 -49 -5 -170 -10
-267 -10 -203 -1 -288 -11 -447 -52 -63 -16 -117 -27 -119 -24 -3 3 -10 1 -16
-5 -8 -6 -27 4 -57 29 -24 22 -155 100 -289 174 -135 74 -319 176 -409 227
-91 50 -180 98 -198 105 -20 8 -38 25 -44 42 -32 80 -19 452 31 853 10 85 22
184 25 220 l7 65 105 34 c121 40 320 134 440 209 115 71 314 224 419 321 30
28 34 29 147 30 192 2 321 39 499 144 194 114 317 235 533 522 282 376 363
546 454 951 22 99 43 205 46 235 4 30 14 81 24 114 14 51 16 115 15 430 -2
537 -38 849 -117 1003 -19 37 -51 110 -71 163 -49 127 -129 270 -277 492 -128
192 -166 244 -234 317 -23 25 -55 68 -70 95 -38 67 -243 269 -385 379 -148
114 -436 305 -665 439 l-180 106 -200 55 c-110 30 -231 66 -270 80 -222 80
-770 119 -1145 81z m-1650 -6194 c283 -178 469 -265 653 -306 l78 -17 -101
-34 c-55 -19 -113 -40 -127 -48 -26 -13 -29 -12 -93 55 -71 73 -133 108 -191
109 -65 0 -208 -59 -371 -154 -54 -31 -100 -56 -103 -56 -11 0 -3 65 20 162
14 57 35 169 47 250 21 146 22 148 42 133 12 -8 77 -50 146 -94z m2435 0 c-4
-17 -11 -31 -16 -31 -11 0 -11 0 2 39 14 39 23 34 14 -8z m-1174 -371 c22 -71
33 -236 24 -345 l-7 -84 -94 -47 c-52 -26 -96 -45 -97 -43 -2 2 -18 47 -36 99
-50 146 -164 373 -211 420 l-40 40 148 1 c81 1 172 4 202 9 90 12 92 11 111
-50z"/>
<path d="M2775 9141 c-207 -74 -400 -250 -460 -421 -28 -80 -14 -150 41 -202
87 -81 314 -99 478 -38 120 45 266 173 316 276 49 100 34 206 -38 286 -43 48
-87 71 -183 98 -87 24 -89 24 -154 1z"/>
</g>
</svg>
